HIERARCHY
ROOT Hips
{
	OFFSET 0.000000 35.082581 0.000000
	CHANNELS 6 Xposition Yposition Zposition Xrotation Yrotation Zrotation 
	JOINT Spine
	{
		OFFSET 0.000000 6.876099 0.125700
		CHANNELS 3 Xrotation Yrotation Zrotation
		JOINT Spine1
		{
			OFFSET 0.000000 5.730043 0.104720
			CHANNELS 3 Xrotation Yrotation Zrotation
			JOINT Spine1_split
			{
				OFFSET 0.000000 5.730043 0.104720
				CHANNELS 3 Xrotation Yrotation Zrotation
				JOINT Spine2
				{
					OFFSET 0.000000 5.730043 0.104720
					CHANNELS 3 Xrotation Yrotation Zrotation
					JOINT Neck
					{
						OFFSET 0.000000 10.314075 0.188496
						CHANNELS 3 Xrotation Yrotation Zrotation
						JOINT Head
						{
							OFFSET 0.000000 7.643700 -2.377400
							CHANNELS 3 Xrotation Yrotation Zrotation
							JOINT HeadTop_End
							{
								OFFSET 0.000000 43.788605 -13.619600
								CHANNELS 3 Xrotation Yrotation Zrotation
								End Site
								{
									OFFSET 0.000000 0.000000 0.000000
								}
							}
						}
					}
					JOINT LeftShoulder
					{
						OFFSET 2.196100 4.412489 0.087492
						CHANNELS 3 Xrotation Yrotation Zrotation
						JOINT LeftShoulder_split
						{
							OFFSET 2.196100 4.412489 0.087492
							CHANNELS 3 Xrotation Yrotation Zrotation
							JOINT LeftArm
							{
								OFFSET 8.771219 -2.981674 -0.026999
								CHANNELS 3 Xrotation Yrotation Zrotation
								JOINT LeftForeArm
								{
									OFFSET 8.512804 0.000000 -0.000000
									CHANNELS 3 Xrotation Yrotation Zrotation
									JOINT LeftHand
									{
										OFFSET 18.484802 0.000000 -0.000000
										CHANNELS 3 Xrotation Yrotation Zrotation
										JOINT LeftHandThumb1
										{
											OFFSET 2.499420 -1.158070 2.653252
											CHANNELS 3 Xrotation Yrotation Zrotation
											JOINT LeftHandThumb2
											{
												OFFSET 2.370079 -1.368366 1.368366
												CHANNELS 3 Xrotation Yrotation Zrotation
												JOINT LeftHandThumb3
												{
													OFFSET 2.676727 -1.545410 1.545409
													CHANNELS 3 Xrotation Yrotation Zrotation
													JOINT LeftHandThumb4
													{
														OFFSET 1.692226 -0.977005 0.977007
														CHANNELS 3 Xrotation Yrotation Zrotation
														End Site
														{
															OFFSET 0.000000 0.000000 0.000000
														}
													}
												}
											}
										}
										JOINT LeftHandIndex1
										{
											OFFSET 7.924831 -0.457527 2.345128
											CHANNELS 3 Xrotation Yrotation Zrotation
											JOINT LeftHandIndex2
											{
												OFFSET 3.643303 0.000000 0.000000
												CHANNELS 3 Xrotation Yrotation Zrotation
												JOINT LeftHandIndex3
												{
													OFFSET 3.810799 0.000000 0.000000
													CHANNELS 3 Xrotation Yrotation Zrotation
													JOINT LeftHandIndex4
													{
														OFFSET 2.403702 0.000000 0.000000
														CHANNELS 3 Xrotation Yrotation Zrotation
														End Site
														{
															OFFSET 0.000000 0.000000 0.000000
														}
													}
												}
											}
										}
										JOINT LeftHandMiddle1
										{
											OFFSET 8.563995 0.000000 -0.000000
											CHANNELS 3 Xrotation Yrotation Zrotation
											JOINT LeftHandMiddle2
											{
												OFFSET 3.861618 0.000000 0.000000
												CHANNELS 3 Xrotation Yrotation Zrotation
												JOINT LeftHandMiddle3
												{
													OFFSET 3.701603 0.000000 0.000000
													CHANNELS 3 Xrotation Yrotation Zrotation
													JOINT LeftHandMiddle4
													{
														OFFSET 2.322544 0.000000 0.000000
														CHANNELS 3 Xrotation Yrotation Zrotation
														End Site
														{
															OFFSET 0.000000 0.000000 0.000000
														}
													}
												}
											}
										}
										JOINT LeftHandRing1
										{
											OFFSET 8.426460 -0.424637 -3.286992
											CHANNELS 3 Xrotation Yrotation Zrotation
											JOINT LeftHandRing2
											{
												OFFSET 3.126408 0.000000 0.000000
												CHANNELS 3 Xrotation Yrotation Zrotation
												JOINT LeftHandRing3
												{
													OFFSET 3.085026 0.000000 0.000000
													CHANNELS 3 Xrotation Yrotation Zrotation
													JOINT LeftHandRing4
													{
														OFFSET 1.644005 0.000000 0.000000
														CHANNELS 3 Xrotation Yrotation Zrotation
														End Site
														{
															OFFSET 0.000000 0.000000 0.000000
														}
													}
												}
											}
										}
									}
								}
							}
						}
					}
					JOINT RightShoulder
					{
						OFFSET -2.196100 4.412496 0.070690
						CHANNELS 3 Xrotation Yrotation Zrotation
						JOINT RightShoulder_split
						{
							OFFSET -2.196100 4.412496 0.070690
							CHANNELS 3 Xrotation Yrotation Zrotation
							JOINT RightArm
							{
								OFFSET -8.771282 -2.981682 -0.094208
								CHANNELS 3 Xrotation Yrotation Zrotation
								JOINT RightForeArm
								{
									OFFSET -8.494598 0.000000 0.000000
									CHANNELS 3 Xrotation Yrotation Zrotation
									JOINT RightHand
									{
										OFFSET -18.483803 0.000000 0.000001
										CHANNELS 3 Xrotation Yrotation Zrotation
										JOINT RightHandThumb1
										{
											OFFSET -2.527351 -1.008072 2.575253
											CHANNELS 3 Xrotation Yrotation Zrotation
											JOINT RightHandThumb2
											{
												OFFSET -2.321518 -1.340328 1.340329
												CHANNELS 3 Xrotation Yrotation Zrotation
												JOINT RightHandThumb3
												{
													OFFSET -2.657753 -1.534454 1.534455
													CHANNELS 3 Xrotation Yrotation Zrotation
													JOINT RightHandThumb4
													{
														OFFSET -1.807510 -1.043568 1.043567
														CHANNELS 3 Xrotation Yrotation Zrotation
														End Site
														{
															OFFSET 0.000000 0.000000 0.000000
														}
													}
												}
											}
										}
										JOINT RightHandIndex1
										{
											OFFSET -8.811420 0.015533 2.887987
											CHANNELS 3 Xrotation Yrotation Zrotation
											JOINT RightHandIndex2
											{
												OFFSET -3.537502 0.000000 0.000000
												CHANNELS 3 Xrotation Yrotation Zrotation
												JOINT RightHandIndex3
												{
													OFFSET -3.356201 0.000000 0.000000
													CHANNELS 3 Xrotation Yrotation Zrotation
													JOINT RightHandIndex4
													{
														OFFSET -1.933098 0.000000 0.000000
														CHANNELS 3 Xrotation Yrotation Zrotation
														End Site
														{
															OFFSET 0.000000 0.000000 0.000000
														}
													}
												}
											}
										}
										JOINT RightHandMiddle1
										{
											OFFSET -8.178135 0.000000 0.000000
											CHANNELS 3 Xrotation Yrotation Zrotation
											JOINT RightHandMiddle2
											{
												OFFSET -3.901302 0.000000 0.000000
												CHANNELS 3 Xrotation Yrotation Zrotation
												JOINT RightHandMiddle3
												{
													OFFSET -3.909599 0.000000 0.000000
													CHANNELS 3 Xrotation Yrotation Zrotation
													JOINT RightHandMiddle4
													{
														OFFSET -2.376003 0.000000 0.000000
														CHANNELS 3 Xrotation Yrotation Zrotation
														End Site
														{
															OFFSET 0.000000 0.000000 0.000000
														}
													}
												}
											}
										}
										JOINT RightHandRing1
										{
											OFFSET -7.559013 0.014137 -2.865403
											CHANNELS 3 Xrotation Yrotation Zrotation
											JOINT RightHandRing2
											{
												OFFSET -3.449306 0.000000 0.000000
												CHANNELS 3 Xrotation Yrotation Zrotation
												JOINT RightHandRing3
												{
													OFFSET -3.362106 0.000000 0.000000
													CHANNELS 3 Xrotation Yrotation Zrotation
													JOINT RightHandRing4
													{
														OFFSET -2.076401 0.000000 0.000000
														CHANNELS 3 Xrotation Yrotation Zrotation
														End Site
														{
															OFFSET 0.000000 0.000000 0.000000
														}
													}
												}
											}
										}
									}
								}
							}
						}
					}
				}
			}
		}
	}
	JOINT LeftUpLeg
	{
		OFFSET 10.205400 -3.823500 0.155100
		CHANNELS 3 Xrotation Yrotation Zrotation
		JOINT LeftLeg
		{
			OFFSET 0.708757 -12.982077 0.567790
			CHANNELS 3 Xrotation Yrotation Zrotation
			JOINT LeftFoot
			{
				OFFSET -0.708756 -10.717838 -2.184338
				CHANNELS 3 Xrotation Yrotation Zrotation
				JOINT LeftToeBase
				{
					OFFSET 0.108149 -7.191104 7.560241
					CHANNELS 3 Xrotation Yrotation Zrotation
					JOINT LeftToe_End
					{
						OFFSET 0.070230 0.081724 4.490308
						CHANNELS 3 Xrotation Yrotation Zrotation
						End Site
						{
							OFFSET 0.000000 0.000000 0.000000
						}
					}
				}
			}
		}
	}
	JOINT RightUpLeg
	{
		OFFSET -10.205400 -3.823500 0.005500
		CHANNELS 3 Xrotation Yrotation Zrotation
		JOINT RightLeg
		{
			OFFSET -0.708756 -12.982134 0.610632
			CHANNELS 3 Xrotation Yrotation Zrotation
			JOINT RightFoot
			{
				OFFSET 0.708754 -10.717769 -1.945823
				CHANNELS 3 Xrotation Yrotation Zrotation
				JOINT RightToeBase
				{
					OFFSET -0.108140 -7.191069 7.372968
					CHANNELS 3 Xrotation Yrotation Zrotation
					JOINT RightToe_End
					{
						OFFSET -0.070227 0.081735 4.479403
						CHANNELS 3 Xrotation Yrotation Zrotation
						End Site
						{
							OFFSET 0.000000 0.000000 0.000000
						}
					}
				}
			}
		}
	}
}
MOTION
Frames: 4
Frame Time: 0.016667
-3.208383 22.663315 5.478893 14.559429 41.654383 -6.156706 8.262313 12.434714 -0.787430 2.381662 15.778997 -0.339817 0.000000 0.000000 0.000000 2.404005 15.779120 -0.339338 24.492234 -34.509599 6.782134 -25.202435 -35.567490 -2.580321 -0.000000 0.000001 -0.000000 3.133499 -2.562307 -3.584643 0.000000 0.000000 0.000000 -38.240764 7.071604 -29.653580 51.130335 1.007858 17.797864 -12.087049 -6.543422 6.823686 0.717861 -6.071440 10.111279 2.373405 19.986120 -2.038331 -3.156298 -10.994091 -3.942391 -0.000001 -0.000003 -0.000001 9.749542 -2.596975 0.987090 -0.005782 0.241059 -8.886558 0.009877 0.192794 -9.303287 -0.000002 -0.000002 0.000000 9.008206 3.812755 -14.287941 0.043544 0.559781 -9.088826 0.044212 0.054283 -10.038847 -0.000002 -0.000000 -0.000000 10.700104 16.687201 -35.234852 0.141861 0.238689 -28.896932 0.239545 0.766381 -30.524877 0.000000 0.000000 -0.000001 -3.243333 8.889432 -18.987011 0.000000 0.000000 0.000000 -18.337458 -10.441360 2.113092 144.016588 167.285908 -173.359395 -12.660217 -2.965770 -5.790700 9.279836 0.855319 2.186157 1.377835 -17.419911 3.021605 -5.063641 15.450294 6.710049 0.000001 0.000000 0.000003 8.977440 0.914856 -26.573708 -0.055964 -0.245628 0.029091 0.065532 -0.173587 -17.321170 0.000001 -0.000002 -0.000002 7.645440 -7.256345 -8.401658 0.102438 -0.524317 3.712656 0.060541 0.026531 0.025057 -0.000004 -0.000000 -0.000000 6.495356 -19.152592 6.388330 0.205315 -0.177351 17.221788 0.114129 -0.673275 13.330222 0.000001 -0.000003 -0.000002 -88.281882 -2.753488 -32.600346 33.097208 -48.383154 -0.867633 29.844283 -4.390119 -29.633691 -0.265520 1.013645 0.842649 0.000000 -0.000002 -0.000000 70.092501 -35.849289 25.210600 -0.679567 21.417742 -2.340343 -28.372186 -3.263926 0.168217 -38.110297 -9.555060 7.601756 0.000000 -0.000000 0.000000 
-3.141666 22.809162 5.499089 14.228086 40.412535 -5.947067 8.277066 12.184493 -0.719623 2.453888 15.715420 -0.410866 0.000000 0.000000 0.000000 2.476204 15.715458 -0.410364 24.483098 -34.297822 7.138979 -25.083002 -35.421945 -2.270474 0.000000 0.000001 0.000001 3.030141 -2.053834 -3.444259 0.000000 0.000000 0.000000 -34.893640 7.814707 -28.841420 51.215268 1.798522 17.534554 -13.743624 -6.963596 5.081467 0.690154 -6.258010 9.347857 2.373402 19.986117 -2.038333 -2.950745 -10.470243 -3.633107 -0.000001 0.000002 -0.000004 9.889673 -2.215686 0.150825 -0.005912 0.241175 -9.214047 0.009832 0.193476 -9.661942 0.000002 -0.000001 -0.000002 9.055372 4.126244 -14.668275 0.045001 0.562268 -9.437249 0.047247 0.056831 -10.514597 -0.000001 -0.000001 -0.000000 10.739755 16.814780 -35.132161 0.137658 0.239650 -28.699331 0.240158 0.766202 -30.516022 -0.000000 0.000000 -0.000000 -3.234075 9.381082 -18.988042 0.000000 0.000000 0.000000 -20.179975 -10.125704 2.111699 144.235208 166.478744 -172.151612 -12.150575 -4.188285 -6.691109 9.388008 0.822766 2.124783 1.377815 -17.419924 3.021611 -4.907293 15.110214 6.489210 0.000003 0.000003 0.000003 9.067888 0.695030 -25.814430 -0.051502 -0.245693 0.064847 0.066198 -0.173244 -16.533796 -0.000001 0.000001 -0.000003 7.626693 -7.125898 -7.923844 0.102858 -0.525816 3.951779 0.065248 0.024144 0.731391 -0.000003 0.000000 0.000000 6.454411 -18.622953 6.787677 0.200244 -0.179010 17.261575 0.120351 -0.674335 13.794707 -0.000000 -0.000004 0.000001 -88.372642 -2.812336 -31.936059 34.895085 -47.685297 -0.495300 29.043768 -4.123028 -28.745439 -0.256864 1.016460 0.841984 -0.000000 -0.000004 -0.000000 66.892127 -36.208581 22.756734 3.128091 21.936549 -2.622241 -29.766815 -3.372905 -0.784402 -38.204605 -9.490937 7.529744 0.000000 -0.000000 -0.000000 
-3.070330 22.962677 5.509999 13.782865 39.006838 -5.653269 8.282723 11.927954 -0.664438 2.510248 15.645964 -0.515677 0.000000 0.000000 0.000000 2.532579 15.646024 -0.515176 24.400723 -34.088262 7.703150 -24.875686 -35.237643 -1.959298 0.000001 0.000000 0.000001 2.904512 -1.393840 -3.364805 0.000000 0.000000 0.000000 -31.432671 8.742954 -28.038408 51.355711 2.474106 17.546573 -14.985712 -7.307992 3.153637 0.630767 -6.463509 8.584033 2.373404 19.986120 -2.038333 -2.743516 -9.931753 -3.318167 -0.000000 -0.000002 0.000001 10.025388 -1.815692 -0.661312 -0.006055 0.241269 -9.522512 0.009775 0.194142 -10.001440 0.000003 -0.000000 0.000001 9.103786 4.430292 -15.033801 0.046498 0.564851 -9.784026 0.050453 0.059382 -10.997546 -0.000000 -0.000000 -0.000001 10.772696 16.882100 -35.025306 0.133026 0.240871 -28.494050 0.240796 0.766068 -30.504554 0.000001 0.000000 -0.000000 -3.144795 9.710547 -18.951722 0.000000 0.000000 0.000000 -22.316893 -9.294439 2.336559 144.310860 166.066214 -170.952094 -11.502432 -5.129990 -7.348372 9.669540 0.616308 2.214298 1.377773 -17.419906 3.021578 -4.745907 14.753916 6.259280 0.000000 -0.000003 -0.000001 9.166956 0.351647 -24.705366 -0.047734 -0.246363 0.536666 0.066987 -0.173074 -15.598999 0.000001 -0.000000 0.000003 7.623382 -7.047085 -7.050677 0.103808 -0.528131 4.369236 0.071328 0.020576 1.698006 -0.000003 0.000000 -0.000000 6.475547 -18.077214 7.614151 0.194414 -0.181322 17.489910 0.129090 -0.676378 14.525960 0.000000 0.000003 -0.000002 -88.396370 -2.865690 -31.158903 36.817288 -46.883382 -0.125450 28.167485 -3.852353 -27.796829 -0.248002 1.019547 0.841882 0.000000 0.000000 -0.000000 63.698856 -36.392389 20.131458 6.732465 21.006189 -3.120068 -31.044419 -2.387004 -0.695303 -38.283063 -9.404946 7.448215 0.000000 -0.000000 -0.000000 
-2.998399 23.114784 5.505190 13.249939 37.500177 -5.300390 8.301612 11.652555 -0.617530 2.590921 15.519590 -0.627977 0.000000 0.000000 0.000000 2.613258 15.519680 -0.627484 23.964953 -33.896487 8.093918 -24.622552 -35.034226 -1.643721 0.000001 -0.000000 -0.000001 2.760280 -0.547892 -3.344412 0.000000 0.000000 0.000000 -27.854184 9.898206 -27.279968 51.514393 3.115303 17.933630 -15.929282 -7.467004 0.985754 0.527106 -6.696450 7.834180 2.373401 19.986117 -2.038335 -2.537544 -9.386640 -3.002683 -0.000003 0.000003 -0.000000 10.153731 -1.387416 -1.422221 -0.006232 0.241369 -9.803566 0.009721 0.194729 -10.309536 -0.000001 -0.000004 -0.000001 9.151805 4.724944 -15.358939 0.048181 0.567333 -10.114802 0.053803 0.061906 -11.473890 0.000002 0.000003 0.000001 10.792641 16.881089 -34.884597 0.127717 0.242434 -28.266103 0.241170 0.765893 -30.473398 0.000001 0.000001 -0.000000 -3.150906 9.830087 -18.703819 0.000000 0.000000 0.000000 -24.875228 -7.756464 2.628377 144.587318 165.957464 -169.821807 -10.795646 -5.821793 -7.801432 10.147156 0.218088 2.483477 1.377800 -17.419894 3.021627 -4.575799 14.374417 6.017097 -0.000002 -0.000000 0.000001 9.294098 -0.101586 -23.043796 -0.044946 -0.247246 1.135085 0.068445 -0.173248 -14.317391 -0.000000 0.000001 -0.000000 7.644639 -7.010147 -5.719501 0.105645 -0.531401 5.013996 0.078683 0.015867 2.942627 0.000001 0.000000 -0.000000 6.566113 -17.505213 8.934425 0.187948 -0.184197 17.963237 0.140656 -0.679345 15.560009 -0.000002 -0.000004 -0.000000 -88.359446 -2.953147 -30.318274 38.738121 -45.982924 0.226808 27.255527 -3.597862 -26.863172 -0.238827 1.022707 0.842143 0.000000 0.000001 -0.000000 60.549627 -36.504639 17.438764 10.248578 21.052774 -3.487345 -32.231150 -2.139279 -1.092450 -38.339675 -9.301525 7.361711 0.000000 0.000000 -0.000000 
